HIERARCHY
ROOT Hips
{
	OFFSET -0.001795 -0.223333 0.028219
	CHANNELS 6 Xposition Yposition Zposition Zrotation Yrotation Xrotation 
	JOINT LeftUpLeg
	{
		OFFSET 0.069520 -0.091406 -0.006815
		CHANNELS 3 Zrotation Yrotation Xrotation
		JOINT LeftLeg
		{
			OFFSET 0.034277 -0.375199 -0.004496
			CHANNELS 3 Zrotation Yrotation Xrotation
			JOINT LeftFoot
			{
				OFFSET -0.013596 -0.397961 -0.043693
				CHANNELS 3 Zrotation Yrotation Xrotation
				JOINT LeftToe
				{
					OFFSET 0.026358 -0.055791 0.119288
					CHANNELS 3 Zrotation Yrotation Xrotation
					End Site
					{
						OFFSET 0.000000 0.000000 0.000000
					}
				}
			}
		}
	}
	JOINT RightUpLeg
	{
		OFFSET -0.067670 -0.090522 -0.004320
		CHANNELS 3 Zrotation Yrotation Xrotation
		JOINT RightLeg
		{
			OFFSET -0.038290 -0.382569 -0.008850
			CHANNELS 3 Zrotation Yrotation Xrotation
			JOINT RightFoot
			{
				OFFSET 0.015774 -0.398415 -0.042312
				CHANNELS 3 Zrotation Yrotation Xrotation
				JOINT RightToe
				{
					OFFSET -0.025372 -0.048144 0.123348
					CHANNELS 3 Zrotation Yrotation Xrotation
					End Site
					{
						OFFSET 0.000000 0.000000 0.000000
					}
				}
			}
		}
	}
	JOINT Spine
	{
		OFFSET -0.002533 0.108963 -0.026696
		CHANNELS 3 Zrotation Yrotation Xrotation
		JOINT Spine1
		{
			OFFSET 0.005487 0.135180 0.001092
			CHANNELS 3 Zrotation Yrotation Xrotation
			JOINT Spine2
			{
				OFFSET 0.001457 0.052922 0.025425
				CHANNELS 3 Zrotation Yrotation Xrotation
				JOINT Neck
				{
					OFFSET -0.002778 0.213870 -0.042857
					CHANNELS 3 Zrotation Yrotation Xrotation
					JOINT Head
					{
						OFFSET 0.005152 0.064970 0.051349
						CHANNELS 3 Zrotation Yrotation Xrotation
						End Site
						{
							OFFSET 0.000000 0.000000 0.000000
						}
					}
				}
				JOINT LeftShoulder
				{
					OFFSET 0.078845 0.121749 -0.034090
					CHANNELS 3 Zrotation Yrotation Xrotation
					JOINT LeftArm
					{
						OFFSET 0.090977 0.030469 -0.008868
						CHANNELS 3 Zrotation Yrotation Xrotation
						JOINT LeftForeArm
						{
							OFFSET 0.259612 -0.012772 -0.027456
							CHANNELS 3 Zrotation Yrotation Xrotation
							JOINT LeftHand
							{
								OFFSET 0.249234 0.008986 -0.001171
								CHANNELS 3 Zrotation Yrotation Xrotation
								End Site
								{
									OFFSET 0.000000 0.000000 0.000000
								}
							}
						}
					}
				}
				JOINT RightShoulder
				{
					OFFSET -0.081759 0.118833 -0.038615
					CHANNELS 3 Zrotation Yrotation Xrotation
					JOINT RightArm
					{
						OFFSET -0.096012 0.032551 -0.009143
						CHANNELS 3 Zrotation Yrotation Xrotation
						JOINT RightForeArm
						{
							OFFSET -0.253742 -0.013329 -0.021401
							CHANNELS 3 Zrotation Yrotation Xrotation
							JOINT RightHand
							{
								OFFSET -0.255298 0.007772 -0.005559
								CHANNELS 3 Zrotation Yrotation Xrotation
								End Site
								{
									OFFSET 0.000000 0.000000 0.000000
								}
							}
						}
					}
				}
			}
		}
	}
}
MOTION
Frames: 14
Frame Time: 0.050000
-0.001539 0.950375 -0.028906 -0.898480 -2.686522 6.755348 11.420900 -0.025211 -15.994139 -3.568428 0.433260 10.805052 3.738742 10.648087 13.546025 0.000000 0.000000 0.000000 -8.583411 0.869291 -16.844003 2.479592 0.018447 12.158431 -3.725315 -13.395240 18.188825 0.000000 0.000000 0.000000 -4.251168 0.149845 21.655921 8.542517 -2.797747 -10.798627 -0.743867 2.550884 29.079131 -1.415962 2.375992 -19.891061 0.000000 0.000000 0.000000 -14.207199 -10.572315 4.396264 -56.200280 -33.841373 7.147926 176.920354 -46.063932 -156.129656 0.000000 0.000000 0.000000 -4.025084 21.336021 6.654353 64.799998 34.247100 11.801663 -165.009468 46.311987 -126.608554 0.000000 0.000000 0.000000 
-0.000672 0.950397 -0.028803 -0.973742 -2.911551 6.758239 11.414291 -0.011050 -16.135621 -3.556132 0.439065 11.154449 3.711796 10.527524 13.228798 0.000000 0.000000 0.000000 -8.558459 0.879436 -16.797949 2.519090 0.011595 11.984538 -3.613421 -13.268303 18.307518 0.000000 0.000000 0.000000 -4.218632 0.150735 21.539128 8.403436 -2.756584 -10.762403 -0.739908 2.695788 29.247998 -1.629935 2.531521 -20.064335 0.000000 0.000000 0.000000 -14.529495 -10.418978 4.331056 -56.275652 -32.715111 6.546229 177.733400 -45.757334 -157.907629 0.000000 0.000000 0.000000 -3.215414 21.419068 6.829790 64.939319 33.599983 11.389041 -165.455887 45.918515 -127.018190 0.000000 0.000000 0.000000 
0.000513 0.950172 -0.028701 -0.957783 -3.070264 6.920179 11.395762 -0.005235 -16.330002 -3.711654 0.477301 11.207309 3.880466 10.794292 13.350574 0.000000 0.000000 0.000000 -8.590121 0.889816 -16.910745 2.449237 0.027133 11.879481 -3.662315 -13.397206 18.456418 0.000000 0.000000 0.000000 -4.270418 0.169904 21.319871 8.410315 -2.753292 -10.808922 -0.821803 2.705564 29.364164 -1.972443 2.760537 -20.533222 0.000000 0.000000 0.000000 -14.866962 -10.337796 4.326129 -56.005778 -32.263011 6.233137 177.723207 -45.780612 -157.838631 0.000000 0.000000 0.000000 -2.608341 21.531712 6.981210 64.796380 33.232823 11.056593 -165.783426 45.208432 -126.932647 0.000000 0.000000 0.000000 
0.002020 0.950012 -0.028527 -0.962794 -3.092661 6.821498 11.354761 -0.006307 -16.370539 -3.804859 0.499801 11.397226 3.885793 10.773682 13.178672 0.000000 0.000000 0.000000 -8.617702 0.880387 -16.742766 2.389021 0.036019 11.733032 -3.631687 -13.344722 18.420632 0.000000 0.000000 0.000000 -4.195555 0.152278 21.219460 8.304653 -2.734998 -10.641776 -0.810936 2.734587 29.428185 -2.487525 3.101219 -20.512460 0.000000 0.000000 0.000000 -15.339904 -10.579777 4.464361 -55.519897 -31.711283 5.833663 177.752750 -45.619254 -157.919409 0.000000 0.000000 0.000000 -1.869053 21.695966 7.170584 64.617769 32.797686 10.696262 -166.355354 44.570933 -127.441831 0.000000 0.000000 0.000000 
0.003679 0.949701 -0.028309 -0.919518 -2.891984 6.863634 11.235705 -0.032355 -16.450737 -3.804999 0.493026 11.279373 3.869848 10.800020 13.350339 0.000000 0.000000 0.000000 -8.729305 0.860947 -16.701053 2.274011 0.052799 11.681493 -3.722721 -13.463580 18.457047 0.000000 0.000000 0.000000 -4.178959 0.140290 21.192506 8.356641 -2.781972 -10.333235 -0.807094 2.626298 29.047479 -2.748956 3.265446 -20.475574 0.000000 0.000000 0.000000 -15.474888 -10.681178 4.504606 -55.298799 -31.711121 5.838115 177.149432 -45.882440 -156.775432 0.000000 0.000000 0.000000 -1.963423 21.749133 7.178688 64.970785 32.596649 10.716369 -166.399327 44.387393 -127.393757 0.000000 0.000000 0.000000 
0.005251 0.949458 -0.028280 -0.855236 -2.693810 6.781200 10.928136 -0.078109 -16.642309 -3.803753 0.488203 11.451508 3.873047 10.793561 13.127843 0.000000 0.000000 0.000000 -8.876326 0.832619 -16.561324 2.250922 0.051473 11.628499 -3.851010 -13.636708 18.454892 0.000000 0.000000 0.000000 -4.088687 0.111886 21.181570 8.273776 -2.767379 -10.163581 -0.935228 2.505079 28.982571 -3.274998 3.604472 -20.580944 0.000000 0.000000 0.000000 -15.504458 -11.048429 4.693295 -54.792579 -31.895015 5.839748 176.052756 -46.128196 -154.418558 0.000000 0.000000 0.000000 -2.031716 21.911857 7.216648 65.245251 32.448872 10.703915 -166.168328 44.691949 -127.234490 0.000000 0.000000 0.000000 
0.006541 0.949146 -0.028403 -0.851349 -2.449360 6.727183 10.844707 -0.094965 -17.064652 -3.804019 0.485243 11.940774 3.804368 10.678187 12.903668 0.000000 0.000000 0.000000 -8.929678 0.818298 -16.614318 2.180513 0.068571 11.950717 -3.862592 -13.578846 18.205418 0.000000 0.000000 0.000000 -4.029260 0.087306 21.162804 8.084155 -2.713119 -10.004762 -0.838444 2.381218 28.831937 -3.692369 3.871090 -20.600184 0.000000 0.000000 0.000000 -15.520006 -11.258485 4.792444 -54.496693 -32.227111 5.970789 175.225595 -46.401318 -152.751534 0.000000 0.000000 0.000000 -2.265330 22.176323 7.257275 65.499340 32.462283 10.821832 -165.940572 45.571064 -127.767371 0.000000 0.000000 0.000000 
0.007497 0.948862 -0.028626 -0.848067 -2.298961 6.685250 10.883315 -0.092909 -17.378142 -3.903875 0.506688 12.376190 3.727075 10.534617 12.672012 0.000000 0.000000 0.000000 -9.049436 0.801014 -16.662600 2.161711 0.073195 12.119315 -3.921305 -13.632728 18.093117 0.000000 0.000000 0.000000 -4.072423 0.089515 21.051605 8.098797 -2.730975 -9.868538 -0.931268 2.471253 28.718624 -4.046077 4.127040 -20.916332 0.000000 0.000000 0.000000 -15.639613 -11.592410 4.922500 -53.929753 -32.680727 6.097771 174.258203 -46.811306 -151.031274 0.000000 0.000000 0.000000 -2.760495 22.487152 7.261281 65.728599 32.830230 11.206965 -165.718273 46.251029 -127.927069 0.000000 0.000000 0.000000 
0.008256 0.948763 -0.028733 -0.968700 -2.398582 6.502762 10.958370 -0.071193 -17.494252 -3.961238 0.527090 12.835929 3.687150 10.410156 12.378875 0.000000 0.000000 0.000000 -8.928805 0.818650 -16.838355 2.150878 0.093499 12.700053 -3.836638 -13.469629 17.806999 0.000000 0.000000 0.000000 -4.184408 0.115363 21.045796 7.961821 -2.686685 -9.857108 -0.893956 2.826830 28.744554 -4.100079 4.215479 -21.157981 0.000000 0.000000 0.000000 -15.350929 -11.998811 5.044467 -53.390641 -33.066685 6.175272 173.290092 -46.943342 -149.249694 0.000000 0.000000 0.000000 -3.187775 22.807529 7.271145 65.612162 33.340044 11.605704 -165.715638 46.453059 -127.947764 0.000000 0.000000 0.000000 
0.008966 0.948663 -0.028657 -1.119758 -2.505772 6.300955 11.031416 -0.050438 -17.504903 -4.005580 0.542843 13.049988 3.757142 10.493134 12.273272 0.000000 0.000000 0.000000 -8.905988 0.820136 -16.786591 2.267583 0.077583 12.930400 -3.913323 -13.628171 17.928147 0.000000 0.000000 0.000000 -4.292283 0.140227 21.021046 7.641249 -2.590836 -9.689776 -0.750549 2.996785 28.679941 -4.385223 4.416034 -21.026573 0.000000 0.000000 0.000000 -14.925576 -12.155095 5.070669 -53.103234 -33.422839 6.304060 172.466578 -47.040636 -147.656357 0.000000 0.000000 0.000000 -3.917115 22.907367 7.146489 65.427449 34.251260 12.216619 -165.588067 46.165010 -127.353774 0.000000 0.000000 0.000000 
0.009776 0.948962 -0.028474 -1.247801 -2.565137 6.138355 11.060376 -0.041294 -17.357481 -3.874006 0.514411 13.075053 3.523959 10.075627 12.068807 0.000000 0.000000 0.000000 -8.823428 0.822990 -16.622932 2.340786 0.062626 12.889755 -3.834414 -13.516188 17.980778 0.000000 0.000000 0.000000 -4.369963 0.155347 20.795878 7.442073 -2.511037 -9.796088 -0.807467 3.177689 28.781782 -4.505496 4.521729 -20.794015 0.000000 0.000000 0.000000 -14.463030 -12.191420 5.038384 -53.253454 -33.516426 6.363395 172.593187 -47.435000 -148.246524 0.000000 0.000000 0.000000 -4.475550 23.095679 7.077633 64.898335 35.266618 12.770361 -164.661002 45.773316 -124.901256 0.000000 0.000000 0.000000 
0.010817 0.949176 -0.028363 -1.329897 -2.554068 6.126728 10.937311 -0.060140 -17.229112 -3.695593 0.470607 12.827830 3.444617 9.958362 12.122558 0.000000 0.000000 0.000000 -8.925303 0.812820 -16.633532 2.584113 0.010377 12.895701 -4.078740 -13.979600 18.479033 0.000000 0.000000 0.000000 -4.427429 0.164572 20.481134 7.083411 -2.386770 -9.725787 -0.602443 3.280810 28.693589 -4.836053 4.750390 -20.519857 0.000000 0.000000 0.000000 -14.099355 -12.393618 5.092349 -53.368086 -33.463763 6.374729 172.100122 -47.496348 -147.318066 0.000000 0.000000 0.000000 -5.011006 23.088874 6.961694 64.359309 36.038245 13.157209 -163.611668 45.053795 -121.841139 0.000000 0.000000 0.000000 
0.012027 0.949460 -0.028587 -1.396727 -2.448052 6.087317 10.961594 -0.062357 -17.148983 -3.627653 0.450772 12.697389 3.314705 9.749721 12.065600 0.000000 0.000000 0.000000 -9.008244 0.799253 -16.614727 2.697803 -0.014609 12.998176 -4.046775 -13.912396 18.494576 0.000000 0.000000 0.000000 -4.546450 0.183134 20.320490 6.930862 -2.313507 -9.909196 -0.661191 3.453309 28.826790 -4.660495 4.676348 -19.965292 0.000000 0.000000 0.000000 -13.745582 -12.283426 4.979108 -53.757851 -33.320592 6.362676 172.487346 -47.632512 -148.348242 0.000000 0.000000 0.000000 -5.556330 22.856933 6.773055 63.809152 36.822092 13.556460 -162.586463 43.878127 -118.077584 0.000000 0.000000 0.000000 
0.013198 0.949622 -0.029313 -1.498926 -2.350126 5.890066 10.940537 -0.067222 -17.038605 -3.485953 0.414194 12.511649 3.118017 9.423770 11.965894 0.000000 0.000000 0.000000 -9.092501 0.780487 -16.520284 2.737051 -0.025825 12.996800 -4.125284 -14.087892 18.981316 0.000000 0.000000 0.000000 -4.659015 0.201166 20.548724 6.685297 -2.221560 -9.951749 -0.392638 3.812895 28.787250 -4.626072 4.719398 -19.687959 0.000000 0.000000 0.000000 -13.544933 -12.175949 4.833160 -54.018397 -33.303075 6.398991 173.148067 -47.419460 -149.965017 0.000000 0.000000 0.000000 -6.360906 22.547845 6.504232 63.717002 37.395412 14.053361 -161.762057 43.169377 -115.151969 0.000000 0.000000 0.000000 
